#!OML:ASF E:\emotionWalksFemale\Project 1\Capture day 1\Session 1\Female1.ASF
:FULLY-SPECIFIED
:DEGREES
2290
root 9.15053 15.5873 -9.27949 360.858 -12.5407 -360.723
lowerback 6.96556 1.23158 0.19697
upperback -3.32413 1.61506 -0.761569
thorax -7.37065 0.760989 -1.12332
lowerneck -2.27022 -7.40119 -10.3432
upperneck 1.10514 -9.67265 5.64021
head 1.61407 -4.82584 3.39014
rclavicle 2.25372e-014 5.1684e-015
rhumerus -34.661 5.41285 -87.6888
rradius 32.2737
rwrist 19.557
rhand -7.35454 -50.8575
rfingers 7.12502
rthumb 18.5298 280.005
lclavicle 2.25372e-014 5.1684e-015
lhumerus -45.1331 5.12069 79.8641
lradius 34.2784
lwrist -15.7121
lhand -3.23735 -36.1072
lfingers 7.12502
lthumb 22.4862 -7.39639
rfemur -12.8261 -3.77454 25.01
rtibia 46.6112
rfoot -9.83253 -7.30057
rtoes -8.03438
lfemur -5.93806 -21.4897 -28.4447
ltibia 26.09
lfoot -22.3903 24.9311
ltoes -23.4421
2291
root 9.15777 15.587 -9.26139 360.903 -12.6627 -360.78
lowerback 7.04865 1.24096 0.260419
upperback -3.33069 1.63491 -0.747957
thorax -7.42406 0.76754 -1.14969
lowerneck -2.23184 -7.31231 -10.3862
upperneck 0.977627 -9.55673 5.74633
head 1.56442 -4.76576 3.44371
rclavicle 3.65267e-015 -3.57812e-015
rhumerus -34.5282 5.82811 -87.8897
rradius 32.2893
rwrist 19.136
rhand -7.66666 -50.3108
rfingers 7.12502
rthumb 18.2296 280.523
lclavicle 3.65267e-015 -3.57812e-015
lhumerus -45.8667 5.77253 79.2203
lradius 33.7408
lwrist -17.4992
lhand -2.36295 -36.1017
lfingers 7.12502
lthumb 23.3252 -7.49479
rfemur -12.7975 -3.75112 25.0101
rtibia 46.652
rfoot -10.1329 -6.85947
rtoes -6.62522
lfemur -5.90406 -21.1738 -28.4089
ltibia 26.0568
lfoot -22.3092 24.7896
ltoes -23.8157
2292
root 9.16986 15.5763 -9.2193 360.716 -13.0895 -360.86
lowerback 6.99493 1.3243 0.495617
upperback -3.17201 1.77115 -0.73967
thorax -7.21398 0.825559 -1.28608
lowerneck -2.31493 -7.12191 -10.5666
upperneck 0.845734 -9.29382 6.06795
head 1.54355 -4.62935 3.59997
rclavicle 1.43373e-014 -1.98785e-015
rhumerus -34.3192 6.06529 -88.0376
rradius 32.3036
rwrist 19.0969
rhand -7.69446 -50.2589
rfingers 7.12502
rthumb 18.2028 280.573
lclavicle 1.43373e-014 -1.98785e-015
lhumerus -46.6627 6.34151 78.694
lradius 33.532
lwrist -18.9659
lhand -1.64134 -35.9126
lfingers 7.12502
lthumb 24.0174 -7.39525
rfemur -12.5016 -3.51209 24.9401
rtibia 46.7291
rfoot -9.64137 -7.38043
rtoes -8.24069
lfemur -5.44476 -21.1363 -28.6627
ltibia 25.9908
lfoot -22.2309 25.5504
ltoes -26.0512
2293
root 9.17552 15.5724 -9.19077 360.667 -13.2772 -360.79
lowerback 6.91461 1.40018 0.420832
upperback -3.12077 1.86465 -0.747675
thorax -7.1128 0.875863 -1.26105
lowerneck -2.17504 -7.00861 -10.598
upperneck 0.626036 -9.15534 6.23968
head 1.4457 -4.55768 3.68064
rclavicle -2.10588e-014 2.78299e-015
rhumerus -34.2741 6.10988 -88.0892
rradius 32.3463
rwrist 19.3302
rhand -7.81874 -50.628
rfingers 7.12502
rthumb 18.0832 280.193
lclavicle -2.10588e-014 2.78299e-015
lhumerus -47.2848 6.70303 78.2866
lradius 33.1302
lwrist -20.1489
lhand -1.17074 -35.6675
lfingers 7.12502
lthumb 24.4685 -7.21036
rfemur -12.4404 -3.28846 24.8032
rtibia 46.8329
rfoot -10.2521 -6.50422
rtoes -8.75487
lfemur -5.2326 -21.1375 -28.895
ltibia 25.9013
lfoot -22.2098 25.9057
ltoes -27.1327
2294
root 9.17755 15.5731 -9.17216 360.703 -13.41 -360.714
lowerback 6.86276 1.54262 0.259986
upperback -3.16377 2.03591 -0.798045
thorax -7.12859 0.965898 -1.24487
lowerneck -1.67399 -6.99209 -10.3113
upperneck 0.227096 -9.18165 6.18645
head 1.20744 -4.57179 3.63248
rclavicle 2.37548e-014 -6.75868e-015
rhumerus -34.36 6.0009 -88.1252
rradius 32.3174
rwrist 19.6913
rhand -8.09186 -50.8406
rfingers 7.12502
rthumb 17.8204 279.956
lclavicle 2.37548e-014 -6.75868e-015
lhumerus -47.7255 6.77817 77.8971
lradius 32.5311
lwrist -21.2279
lhand -0.605025 -35.5378
lfingers 7.12502
lthumb 25.0107 -7.15506
rfemur -12.4882 -3.09917 24.6858
rtibia 46.9405
rfoot -9.59131 -7.31422
rtoes -8.62705
lfemur -5.10663 -21.2313 -29.0316
ltibia 25.7854
lfoot -22.5092 25.8844
ltoes -25.7658
2295
root 9.1796 15.5736 -9.15976 360.804 -13.5541 -360.696
lowerback 6.84973 1.67687 0.149473
upperback -3.20155 2.20168 -0.841989
thorax -7.16037 1.05095 -1.25067
lowerneck -1.42919 -6.9646 -9.9402
upperneck -0.0388895 -9.16769 6.01898
head 1.04493 -4.56464 3.52005
rclavicle -7.37988e-015 7.15625e-015
rhumerus -34.3893 5.8864 -88.1804
rradius 32.4267
rwrist 19.8129
rhand -8.13069 -50.9082
rfingers 7.12502
rthumb 17.7831 279.885
lclavicle -7.37988e-015 7.15625e-015
lhumerus -48.156 6.82844 77.5003
lradius 32.0434
lwrist -22.5074
lhand -0.947242 -36.0255
lfingers 7.12502
lthumb 24.6828 -7.5975
rfemur -12.6087 -2.93623 24.6349
rtibia 47.0275
rfoot -10.195 -6.36958
rtoes -10.178
lfemur -5.04357 -21.3837 -29.0552
ltibia 25.6492
lfoot -23.2366 25.5622
ltoes -22.1192
2296
root 9.18519 15.5737 -9.14739 360.902 -13.62 -360.667
lowerback 6.85537 1.72804 0.0825895
upperback -3.20074 2.26296 -0.85093
thorax -7.16382 1.08391 -1.23062
lowerneck -1.62451 -6.87736 -9.76283
upperneck 0.0459309 -9.03494 5.85683
head 1.07673 -4.49715 3.42777
rclavicle 2.77429e-014 1.47101e-014
rhumerus -34.4074 5.9691 -88.2423
rradius 32.7066
rwrist 19.7418
rhand -8.08309 -50.938
rfingers 7.12502
rthumb 17.8289 279.859
lclavicle 2.77429e-014 1.47101e-014
lhumerus -48.7086 6.82259 77.2554
lradius 31.7638
lwrist -23.5604
lhand -1.66622 -36.8752
lfingers 7.12502
lthumb 23.9935 -8.35474
rfemur -12.7424 -2.84885 24.5617
rtibia 47.1095
rfoot -9.71695 -7.21602
rtoes -9.1522
lfemur -5.00705 -21.4953 -29.0885
ltibia 25.4792
lfoot -23.7845 25.2461
ltoes -19.2852
2297
root 9.19442 15.5751 -9.13151 360.969 -13.5376 -360.642
lowerback 6.86596 1.68892 0.109984
upperback -3.19628 2.21336 -0.849976
thorax -7.16509 1.0583 -1.23888
lowerneck -1.74963 -6.70273 -9.73797
upperneck 0.0722317 -8.7907 5.85618
head 1.08562 -4.37374 3.42763
rclavicle -7.23079e-015 4.77083e-015
rhumerus -34.4079 6.22752 -88.3435
rradius 32.8837
rwrist 19.6683
rhand -7.92096 -51.059
rfingers 7.12502
rthumb 17.9849 279.753
lclavicle -7.23079e-015 4.77083e-015
lhumerus -49.3285 6.60186 77.2425
lradius 31.7627
lwrist -23.7293
lhand -1.44062 -36.7387
lfingers 7.12502
lthumb 24.2098 -8.24682
rfemur -12.8227 -2.94795 24.457
rtibia 47.2046
rfoot -9.65432 -7.19826
rtoes -9.06174
lfemur -4.92887 -21.5371 -29.1438
ltibia 25.2735
lfoot -23.7108 25.203
ltoes -19.338
2298
root 9.20192 15.5747 -9.10843 360.999 -13.472 -360.527
lowerback 6.83916 1.65432 0.00876689
upperback -3.15287 2.15654 -0.861136
thorax -7.10778 1.03541 -1.18452
lowerneck -2.01656 -6.49784 -9.54493
upperneck 0.05259 -8.49403 5.75662
head 1.08624 -4.22177 3.36003
rclavicle -9.97651e-015 -8.34896e-015
rhumerus -34.235 6.40798 -88.4034
rradius 32.9306
rwrist 19.6015
rhand -7.64492 -51.185
rfingers 7.12502
rthumb 18.2505 279.651
lclavicle -9.97651e-015 -8.34896e-015
lhumerus -49.7118 6.43015 77.2855
lradius 31.7349
lwrist -23.3717
lhand -0.628576 -35.9965
lfingers 7.12502
lthumb 24.9882 -7.61063
rfemur -12.8476 -3.09689 24.222
rtibia 47.3298
rfoot -9.96056 -6.58899
rtoes -10.6145
lfemur -4.78234 -21.6346 -29.349
ltibia 25.1028
lfoot -23.5768 25.3381
ltoes -19.8192
2299
root 9.20739 15.5741 -9.08561 361.048 -13.4111 -360.432
lowerback 6.85242 1.65833 -0.130746
upperback -3.16247 2.14789 -0.86356
thorax -7.13096 1.0374 -1.10852
lowerneck -2.30064 -6.29046 -9.21835
upperneck 0.111389 -8.19678 5.52502
head 1.10253 -4.07105 3.22113
rclavicle -1.19768e-014 -7.15625e-015
rhumerus -34.118 6.35231 -88.3751
rradius 32.9904
rwrist 19.617
rhand -7.56976 -51.0174
rfingers 7.12502
rthumb 18.3228 279.826
lclavicle -1.19768e-014 -7.15625e-015
lhumerus -50.1448 6.02426 77.5085
lradius 31.9749
lwrist -22.5064
lhand 0.778499 -35.1618
lfingers 7.12502
lthumb 26.3358 -6.97034
rfemur -12.912 -3.20786 24.0289
rtibia 47.488
rfoot -10.4284 -6.08138
rtoes -10.2932
lfemur -4.71307 -21.6994 -29.5243
ltibia 25.0214
lfoot -23.3049 25.5926
ltoes -21.5554
2300
root 9.2156 15.5726 -9.07379 361.196 -13.2054 -360.56
lowerback 6.94481 1.61633 0.0124597
upperback -3.29612 2.10705 -0.832301
thorax -7.32352 1.00972 -1.15729
lowerneck -2.13807 -5.96379 -9.12772
upperneck 0.0655797 -7.77856 5.62293
head 1.0264 -3.86303 3.25939
rclavicle -1.58158e-014 -5.96354e-015
rhumerus -34.1804 6.38802 -88.4272
rradius 33.0324
rwrist 19.4298
rhand -7.8374 -50.4105
rfingers 7.12502
rthumb 18.0653 280.408
lclavicle -1.58158e-014 -5.96354e-015
lhumerus -50.8495 5.20646 77.9672
lradius 32.601
lwrist -21.0589
lhand 2.17606 -34.0841
lfingers 7.12502
lthumb 27.673 -6.09985
rfemur -13.0971 -3.37836 24.134
rtibia 47.6632
rfoot -10.2015 -6.53929
rtoes -10.0643
lfemur -4.84024 -21.6677 -29.3589
ltibia 25.0244
lfoot -22.9792 25.5896
ltoes -23.3952
2301
root 9.22398 15.5646 -9.0636 361.261 -13.1023 -360.719
lowerback 7.04571 1.58882 0.183663
upperback -3.28683 2.09085 -0.781479
thorax -7.36798 0.994492 -1.20108
lowerneck -2.39463 -5.63029 -9.01462
upperneck 0.215469 -7.31809 5.68363
head 1.08184 -3.63083 3.26603
rclavicle -8.93289e-015 -7.95139e-016
rhumerus -34.0788 6.7395 -88.5706
rradius 33.1331
rwrist 18.9359
rhand -7.9657 -50.388
rfingers 7.12502
rthumb 17.9418 280.42
lclavicle -8.93289e-015 -7.95139e-016
lhumerus -51.2737 4.56121 78.3656
lradius 32.9661
lwrist -19.8298
lhand 2.84883 -33.3499
lfingers 7.12502
lthumb 28.3161 -5.47059
rfemur -13.1934 -3.46597 24.2809
rtibia 47.8422
rfoot -9.65826 -6.8386
rtoes -8.79951
lfemur -4.86628 -21.6597 -29.1907
ltibia 25.118
lfoot -23.4432 25.1304
ltoes -21.5762
2302
root 9.2314 15.5553 -9.05057 361.214 -13.1396 -360.775
lowerback 7.06334 1.63914 0.21189
upperback -3.13745 2.16381 -0.746853
thorax -7.21757 1.03147 -1.18716
lowerneck -2.84767 -5.34643 -8.69237
upperneck 0.336137 -6.91003 5.52496
head 1.14786 -3.4228 3.1521
rclavicle 1.28465e-014 -3.97569e-015
rhumerus -33.9122 6.96741 -88.6169
rradius 33.3604
rwrist 18.518
rhand -7.61128 -51.463
rfingers 7.12502
rthumb 18.2828 279.376
lclavicle 1.28465e-014 -3.97569e-015
lhumerus -51.5702 4.09454 78.6075
lradius 33.0358
lwrist -19.4962
lhand 2.50285 -33.8338
lfingers 7.12502
lthumb 27.9854 -5.90006
rfemur -13.1884 -3.43405 24.2885
rtibia 48.0308
rfoot -9.4667 -6.77869
rtoes -8.49424
lfemur -4.80701 -21.5102 -29.185
ltibia 25.2625
lfoot -23.9641 24.6488
ltoes -19.145
2303
root 9.23876 15.5528 -9.03882 361.247 -13.1424 -360.847
lowerback 7.05995 1.81708 0.300167
upperback -3.03036 2.40436 -0.846999
thorax -7.0889 1.1443 -1.36987
lowerneck -3.22688 -5.1721 -7.99842
upperneck 0.372339 -6.66932 5.30985
head 1.16959 -3.29813 2.94787
rclavicle -3.39176e-014 -7.95139e-016
rhumerus -33.7754 6.34006 -88.5271
rradius 33.5612
rwrist 18.4751
rhand -7.64808 -51.6159
rfingers 7.12502
rthumb 18.2474 279.22
lclavicle -3.39176e-014 -7.95139e-016
lhumerus -51.7256 3.27215 78.6466
lradius 32.6897
lwrist -20.1966
lhand 0.51799 -36.0662
lfingers 7.12502
lthumb 26.0864 -7.8377
rfemur -13.2898 -3.41842 24.3104
rtibia 48.2523
rfoot -9.50057 -6.80579
rtoes -8.67268
lfemur -4.86397 -21.2426 -29.1108
ltibia 25.3527
lfoot -24.0591 24.3525
ltoes -18.6172
2304
root 9.24617 15.5525 -9.02496 361.354 -13.0314 -360.841
lowerback 7.04924 1.93876 0.329409
upperback -3.00624 2.56252 -0.962401
thorax -7.0469 1.21821 -1.52633
lowerneck -3.78516 -5.00488 -7.17905
upperneck 0.657303 -6.43687 4.84951
head 1.29018 -3.17989 2.63379
rclavicle -2.0773e-014 2.78299e-015
rhumerus -33.6387 5.64145 -88.4344
rradius 33.603
rwrist 18.6794
rhand -8.27486 -50.5548
rfingers 7.12502
rthumb 17.6444 280.226
lclavicle -2.0773e-014 2.78299e-015
lhumerus -51.8417 2.3833 78.9148
lradius 32.9383
lwrist -19.6452
lhand 0.371201 -36.2304
lfingers 7.12502
lthumb 25.9459 -7.98125
rfemur -13.4711 -3.48354 24.2577
rtibia 48.5092
rfoot -9.50993 -6.77552
rtoes -8.00816
lfemur -4.93126 -21.132 -29.1057
ltibia 25.3172
lfoot -24.0517 24.1556
ltoes -18.9907
